M48
; DRILL file {KiCad (5.1.10-1-10_14)} date Friday, July 08, 2022 at 09:32:21 PM
; FORMAT={-:-/ absolute / metric / decimal}
; #@! TF.CreationDate,2022-07-08T21:32:21+01:00
; #@! TF.GenerationSoftware,Kicad,Pcbnew,(5.1.10-1-10_14)
; #@! TF.FileFunction,Plated,1,2,PTH
FMAT,2
METRIC
T1C0.400
T2C0.800
T3C1.000
%
G90
G05
T1
X97.79Y-92.71
X97.79Y-96.52
T2
X79.7Y-59.1
X79.7Y-61.64
X79.7Y-64.18
X79.7Y-66.72
X79.7Y-69.26
X79.7Y-71.8
X79.7Y-74.34
X79.7Y-76.88
X79.7Y-79.42
X79.7Y-81.96
X79.7Y-84.5
X79.7Y-87.04
X79.7Y-89.58
X79.7Y-92.12
X79.7Y-94.66
X79.7Y-97.2
X79.7Y-99.74
X79.7Y-102.28
X79.7Y-104.82
X79.7Y-107.36
X79.7Y-109.9
X79.7Y-112.44
X79.7Y-114.98
X79.7Y-117.52
X79.7Y-120.06
X79.7Y-122.6
X79.7Y-125.14
X79.7Y-127.68
X79.7Y-130.22
X79.7Y-132.76
X79.7Y-135.3
X79.7Y-137.84
X91.44Y-59.1
X91.44Y-61.64
X91.44Y-64.18
X91.44Y-66.72
X91.44Y-69.26
X91.44Y-71.8
X91.44Y-74.34
X91.44Y-76.88
X91.44Y-79.42
X91.44Y-81.96
X91.44Y-84.5
X91.44Y-87.04
X91.44Y-89.58
X91.44Y-92.12
X91.44Y-94.66
X91.44Y-97.2
X91.44Y-99.74
X91.44Y-102.28
X91.44Y-104.82
X91.44Y-107.36
X91.44Y-109.9
X91.44Y-112.44
X91.44Y-114.98
X91.44Y-117.52
X91.44Y-120.06
X91.44Y-122.6
X91.44Y-125.14
X91.44Y-127.68
X91.44Y-130.22
X91.44Y-132.76
X91.44Y-135.3
X91.44Y-137.84
X102.56Y-59.1
X102.56Y-61.64
X102.56Y-64.18
X102.56Y-66.72
X102.56Y-69.26
X102.56Y-71.8
X102.56Y-74.34
X102.56Y-76.88
X102.56Y-79.42
X102.56Y-81.96
X102.56Y-84.5
X102.56Y-87.04
X102.56Y-89.58
X102.56Y-92.12
X102.56Y-94.66
X102.56Y-97.2
X102.56Y-99.74
X102.56Y-102.28
X102.56Y-104.82
X102.56Y-107.36
X102.56Y-109.9
X102.56Y-112.44
X102.56Y-114.98
X102.56Y-117.52
X102.56Y-120.06
X102.56Y-122.6
X102.56Y-125.14
X102.56Y-127.68
X102.56Y-130.22
X102.56Y-132.76
X102.56Y-135.3
X102.56Y-137.84
X114.3Y-59.1
X114.3Y-61.64
X114.3Y-64.18
X114.3Y-66.72
X114.3Y-69.26
X114.3Y-71.8
X114.3Y-74.34
X114.3Y-76.88
X114.3Y-79.42
X114.3Y-81.96
X114.3Y-84.5
X114.3Y-87.04
X114.3Y-89.58
X114.3Y-92.12
X114.3Y-94.66
X114.3Y-97.2
X114.3Y-99.74
X114.3Y-102.28
X114.3Y-104.82
X114.3Y-107.36
X114.3Y-109.9
X114.3Y-112.44
X114.3Y-114.98
X114.3Y-117.52
X114.3Y-120.06
X114.3Y-122.6
X114.3Y-125.14
X114.3Y-127.68
X114.3Y-130.22
X114.3Y-132.76
X114.3Y-135.3
X114.3Y-137.84
T3
X127.0Y-59.1
X127.0Y-61.64
X129.54Y-59.1
X129.54Y-61.64
X137.16Y-59.1
X137.16Y-61.64
X137.16Y-64.18
X137.16Y-66.72
X137.16Y-69.26
X137.16Y-71.8
X137.16Y-74.34
X137.16Y-76.88
X137.16Y-79.42
X137.16Y-81.96
X137.16Y-84.5
X137.16Y-87.04
X137.16Y-89.58
X137.16Y-92.12
X137.16Y-94.66
X137.16Y-97.2
X137.16Y-99.74
X137.16Y-102.28
X137.16Y-104.82
X137.16Y-107.36
X137.16Y-109.9
X137.16Y-112.44
X137.16Y-114.98
X137.16Y-117.52
X137.16Y-120.06
X137.16Y-122.6
X137.16Y-125.14
X137.16Y-127.68
X137.16Y-130.22
X137.16Y-132.76
X137.16Y-135.3
X137.16Y-137.84
X139.7Y-59.1
X139.7Y-61.64
X139.7Y-64.18
X139.7Y-66.72
X139.7Y-69.26
X139.7Y-71.8
X139.7Y-74.34
X139.7Y-76.88
X139.7Y-79.42
X139.7Y-81.96
X139.7Y-84.5
X139.7Y-87.04
X139.7Y-89.58
X139.7Y-92.12
X139.7Y-94.66
X139.7Y-97.2
X139.7Y-99.74
X139.7Y-102.28
X139.7Y-104.82
X139.7Y-107.36
X139.7Y-109.9
X139.7Y-112.44
X139.7Y-114.98
X139.7Y-117.52
X139.7Y-120.06
X139.7Y-122.6
X139.7Y-125.14
X139.7Y-127.68
X139.7Y-130.22
X139.7Y-132.76
X139.7Y-135.3
X139.7Y-137.84
T0
M30
