%TF.GenerationSoftware,KiCad,Pcbnew,(5.1.10-1-10_14)*%
%TF.CreationDate,2022-07-08T21:32:07+01:00*%
%TF.ProjectId,68k_debug,36386b5f-6465-4627-9567-2e6b69636164,rev?*%
%TF.SameCoordinates,Original*%
%TF.FileFunction,Soldermask,Bot*%
%TF.FilePolarity,Negative*%
%FSLAX46Y46*%
G04 Gerber Fmt 4.6, Leading zero omitted, Abs format (unit mm)*
G04 Created by KiCad (PCBNEW (5.1.10-1-10_14)) date 2022-07-08 21:32:07*
%MOMM*%
%LPD*%
G01*
G04 APERTURE LIST*
%ADD10O,1.700000X1.700000*%
%ADD11R,1.700000X1.700000*%
%ADD12O,2.400000X1.600000*%
%ADD13R,2.400000X1.600000*%
G04 APERTURE END LIST*
D10*
%TO.C,J1*%
X139700000Y-137840000D03*
X137160000Y-137840000D03*
X139700000Y-135300000D03*
X137160000Y-135300000D03*
X139700000Y-132760000D03*
X137160000Y-132760000D03*
X139700000Y-130220000D03*
X137160000Y-130220000D03*
X139700000Y-127680000D03*
X137160000Y-127680000D03*
X139700000Y-125140000D03*
X137160000Y-125140000D03*
X139700000Y-122600000D03*
X137160000Y-122600000D03*
X139700000Y-120060000D03*
X137160000Y-120060000D03*
X139700000Y-117520000D03*
X137160000Y-117520000D03*
X139700000Y-114980000D03*
X137160000Y-114980000D03*
X139700000Y-112440000D03*
X137160000Y-112440000D03*
X139700000Y-109900000D03*
X137160000Y-109900000D03*
X139700000Y-107360000D03*
X137160000Y-107360000D03*
X139700000Y-104820000D03*
X137160000Y-104820000D03*
X139700000Y-102280000D03*
X137160000Y-102280000D03*
X139700000Y-99740000D03*
X137160000Y-99740000D03*
X139700000Y-97200000D03*
X137160000Y-97200000D03*
X139700000Y-94660000D03*
X137160000Y-94660000D03*
X139700000Y-92120000D03*
X137160000Y-92120000D03*
X139700000Y-89580000D03*
X137160000Y-89580000D03*
X139700000Y-87040000D03*
X137160000Y-87040000D03*
X139700000Y-84500000D03*
X137160000Y-84500000D03*
X139700000Y-81960000D03*
X137160000Y-81960000D03*
X139700000Y-79420000D03*
X137160000Y-79420000D03*
X139700000Y-76880000D03*
X137160000Y-76880000D03*
X139700000Y-74340000D03*
X137160000Y-74340000D03*
X139700000Y-71800000D03*
X137160000Y-71800000D03*
X139700000Y-69260000D03*
X137160000Y-69260000D03*
X139700000Y-66720000D03*
X137160000Y-66720000D03*
X139700000Y-64180000D03*
X137160000Y-64180000D03*
X139700000Y-61640000D03*
X137160000Y-61640000D03*
X139700000Y-59100000D03*
D11*
X137160000Y-59100000D03*
%TD*%
D10*
%TO.C,J2*%
X127000000Y-61640000D03*
X129540000Y-61640000D03*
X127000000Y-59100000D03*
D11*
X129540000Y-59100000D03*
%TD*%
D12*
%TO.C,U2*%
X102560000Y-59100000D03*
X79700000Y-137840000D03*
X102560000Y-61640000D03*
X79700000Y-135300000D03*
X102560000Y-64180000D03*
X79700000Y-132760000D03*
X102560000Y-66720000D03*
X79700000Y-130220000D03*
X102560000Y-69260000D03*
X79700000Y-127680000D03*
X102560000Y-71800000D03*
X79700000Y-125140000D03*
X102560000Y-74340000D03*
X79700000Y-122600000D03*
X102560000Y-76880000D03*
X79700000Y-120060000D03*
X102560000Y-79420000D03*
X79700000Y-117520000D03*
X102560000Y-81960000D03*
X79700000Y-114980000D03*
X102560000Y-84500000D03*
X79700000Y-112440000D03*
X102560000Y-87040000D03*
X79700000Y-109900000D03*
X102560000Y-89580000D03*
X79700000Y-107360000D03*
X102560000Y-92120000D03*
X79700000Y-104820000D03*
X102560000Y-94660000D03*
X79700000Y-102280000D03*
X102560000Y-97200000D03*
X79700000Y-99740000D03*
X102560000Y-99740000D03*
X79700000Y-97200000D03*
X102560000Y-102280000D03*
X79700000Y-94660000D03*
X102560000Y-104820000D03*
X79700000Y-92120000D03*
X102560000Y-107360000D03*
X79700000Y-89580000D03*
X102560000Y-109900000D03*
X79700000Y-87040000D03*
X102560000Y-112440000D03*
X79700000Y-84500000D03*
X102560000Y-114980000D03*
X79700000Y-81960000D03*
X102560000Y-117520000D03*
X79700000Y-79420000D03*
X102560000Y-120060000D03*
X79700000Y-76880000D03*
X102560000Y-122600000D03*
X79700000Y-74340000D03*
X102560000Y-125140000D03*
X79700000Y-71800000D03*
X102560000Y-127680000D03*
X79700000Y-69260000D03*
X102560000Y-130220000D03*
X79700000Y-66720000D03*
X102560000Y-132760000D03*
X79700000Y-64180000D03*
X102560000Y-135300000D03*
X79700000Y-61640000D03*
X102560000Y-137840000D03*
D13*
X79700000Y-59100000D03*
%TD*%
D12*
%TO.C,U1*%
X114300000Y-59100000D03*
X91440000Y-137840000D03*
X114300000Y-61640000D03*
X91440000Y-135300000D03*
X114300000Y-64180000D03*
X91440000Y-132760000D03*
X114300000Y-66720000D03*
X91440000Y-130220000D03*
X114300000Y-69260000D03*
X91440000Y-127680000D03*
X114300000Y-71800000D03*
X91440000Y-125140000D03*
X114300000Y-74340000D03*
X91440000Y-122600000D03*
X114300000Y-76880000D03*
X91440000Y-120060000D03*
X114300000Y-79420000D03*
X91440000Y-117520000D03*
X114300000Y-81960000D03*
X91440000Y-114980000D03*
X114300000Y-84500000D03*
X91440000Y-112440000D03*
X114300000Y-87040000D03*
X91440000Y-109900000D03*
X114300000Y-89580000D03*
X91440000Y-107360000D03*
X114300000Y-92120000D03*
X91440000Y-104820000D03*
X114300000Y-94660000D03*
X91440000Y-102280000D03*
X114300000Y-97200000D03*
X91440000Y-99740000D03*
X114300000Y-99740000D03*
X91440000Y-97200000D03*
X114300000Y-102280000D03*
X91440000Y-94660000D03*
X114300000Y-104820000D03*
X91440000Y-92120000D03*
X114300000Y-107360000D03*
X91440000Y-89580000D03*
X114300000Y-109900000D03*
X91440000Y-87040000D03*
X114300000Y-112440000D03*
X91440000Y-84500000D03*
X114300000Y-114980000D03*
X91440000Y-81960000D03*
X114300000Y-117520000D03*
X91440000Y-79420000D03*
X114300000Y-120060000D03*
X91440000Y-76880000D03*
X114300000Y-122600000D03*
X91440000Y-74340000D03*
X114300000Y-125140000D03*
X91440000Y-71800000D03*
X114300000Y-127680000D03*
X91440000Y-69260000D03*
X114300000Y-130220000D03*
X91440000Y-66720000D03*
X114300000Y-132760000D03*
X91440000Y-64180000D03*
X114300000Y-135300000D03*
X91440000Y-61640000D03*
X114300000Y-137840000D03*
D13*
X91440000Y-59100000D03*
%TD*%
M02*
