%TF.GenerationSoftware,KiCad,Pcbnew,(5.1.10-1-10_14)*%
%TF.CreationDate,2022-07-08T21:32:07+01:00*%
%TF.ProjectId,68k_debug,36386b5f-6465-4627-9567-2e6b69636164,rev?*%
%TF.SameCoordinates,Original*%
%TF.FileFunction,Legend,Top*%
%TF.FilePolarity,Positive*%
%FSLAX46Y46*%
G04 Gerber Fmt 4.6, Leading zero omitted, Abs format (unit mm)*
G04 Created by KiCad (PCBNEW (5.1.10-1-10_14)) date 2022-07-08 21:32:07*
%MOMM*%
%LPD*%
G01*
G04 APERTURE LIST*
%ADD10C,0.150000*%
%ADD11C,1.000000*%
%ADD12C,0.200000*%
%ADD13C,0.250000*%
%ADD14C,0.120000*%
G04 APERTURE END LIST*
D10*
X127920714Y-111364523D02*
X127958809Y-111402619D01*
X127996904Y-111516904D01*
X127996904Y-111593095D01*
X127958809Y-111707380D01*
X127882619Y-111783571D01*
X127806428Y-111821666D01*
X127654047Y-111859761D01*
X127539761Y-111859761D01*
X127387380Y-111821666D01*
X127311190Y-111783571D01*
X127235000Y-111707380D01*
X127196904Y-111593095D01*
X127196904Y-111516904D01*
X127235000Y-111402619D01*
X127273095Y-111364523D01*
X127996904Y-110907380D02*
X127958809Y-110983571D01*
X127920714Y-111021666D01*
X127844523Y-111059761D01*
X127615952Y-111059761D01*
X127539761Y-111021666D01*
X127501666Y-110983571D01*
X127463571Y-110907380D01*
X127463571Y-110793095D01*
X127501666Y-110716904D01*
X127539761Y-110678809D01*
X127615952Y-110640714D01*
X127844523Y-110640714D01*
X127920714Y-110678809D01*
X127958809Y-110716904D01*
X127996904Y-110793095D01*
X127996904Y-110907380D01*
X127463571Y-110297857D02*
X128263571Y-110297857D01*
X127501666Y-110297857D02*
X127463571Y-110221666D01*
X127463571Y-110069285D01*
X127501666Y-109993095D01*
X127539761Y-109955000D01*
X127615952Y-109916904D01*
X127844523Y-109916904D01*
X127920714Y-109955000D01*
X127958809Y-109993095D01*
X127996904Y-110069285D01*
X127996904Y-110221666D01*
X127958809Y-110297857D01*
X127463571Y-109650238D02*
X127996904Y-109459761D01*
X127463571Y-109269285D02*
X127996904Y-109459761D01*
X128187380Y-109535952D01*
X128225476Y-109574047D01*
X128263571Y-109650238D01*
X127996904Y-108964523D02*
X127463571Y-108964523D01*
X127615952Y-108964523D02*
X127539761Y-108926428D01*
X127501666Y-108888333D01*
X127463571Y-108812142D01*
X127463571Y-108735952D01*
X127996904Y-108469285D02*
X127463571Y-108469285D01*
X127196904Y-108469285D02*
X127235000Y-108507380D01*
X127273095Y-108469285D01*
X127235000Y-108431190D01*
X127196904Y-108469285D01*
X127273095Y-108469285D01*
X127463571Y-107745476D02*
X128111190Y-107745476D01*
X128187380Y-107783571D01*
X128225476Y-107821666D01*
X128263571Y-107897857D01*
X128263571Y-108012142D01*
X128225476Y-108088333D01*
X127958809Y-107745476D02*
X127996904Y-107821666D01*
X127996904Y-107974047D01*
X127958809Y-108050238D01*
X127920714Y-108088333D01*
X127844523Y-108126428D01*
X127615952Y-108126428D01*
X127539761Y-108088333D01*
X127501666Y-108050238D01*
X127463571Y-107974047D01*
X127463571Y-107821666D01*
X127501666Y-107745476D01*
X127996904Y-107364523D02*
X127196904Y-107364523D01*
X127996904Y-107021666D02*
X127577857Y-107021666D01*
X127501666Y-107059761D01*
X127463571Y-107135952D01*
X127463571Y-107250238D01*
X127501666Y-107326428D01*
X127539761Y-107364523D01*
X127463571Y-106755000D02*
X127463571Y-106450238D01*
X127196904Y-106640714D02*
X127882619Y-106640714D01*
X127958809Y-106602619D01*
X127996904Y-106526428D01*
X127996904Y-106450238D01*
X127273095Y-105612142D02*
X127235000Y-105574047D01*
X127196904Y-105497857D01*
X127196904Y-105307380D01*
X127235000Y-105231190D01*
X127273095Y-105193095D01*
X127349285Y-105155000D01*
X127425476Y-105155000D01*
X127539761Y-105193095D01*
X127996904Y-105650238D01*
X127996904Y-105155000D01*
X127196904Y-104659761D02*
X127196904Y-104583571D01*
X127235000Y-104507380D01*
X127273095Y-104469285D01*
X127349285Y-104431190D01*
X127501666Y-104393095D01*
X127692142Y-104393095D01*
X127844523Y-104431190D01*
X127920714Y-104469285D01*
X127958809Y-104507380D01*
X127996904Y-104583571D01*
X127996904Y-104659761D01*
X127958809Y-104735952D01*
X127920714Y-104774047D01*
X127844523Y-104812142D01*
X127692142Y-104850238D01*
X127501666Y-104850238D01*
X127349285Y-104812142D01*
X127273095Y-104774047D01*
X127235000Y-104735952D01*
X127196904Y-104659761D01*
X127273095Y-104088333D02*
X127235000Y-104050238D01*
X127196904Y-103974047D01*
X127196904Y-103783571D01*
X127235000Y-103707380D01*
X127273095Y-103669285D01*
X127349285Y-103631190D01*
X127425476Y-103631190D01*
X127539761Y-103669285D01*
X127996904Y-104126428D01*
X127996904Y-103631190D01*
X127273095Y-103326428D02*
X127235000Y-103288333D01*
X127196904Y-103212142D01*
X127196904Y-103021666D01*
X127235000Y-102945476D01*
X127273095Y-102907380D01*
X127349285Y-102869285D01*
X127425476Y-102869285D01*
X127539761Y-102907380D01*
X127996904Y-103364523D01*
X127996904Y-102869285D01*
X127996904Y-101916904D02*
X127196904Y-101916904D01*
X127196904Y-101726428D01*
X127235000Y-101612142D01*
X127311190Y-101535952D01*
X127387380Y-101497857D01*
X127539761Y-101459761D01*
X127654047Y-101459761D01*
X127806428Y-101497857D01*
X127882619Y-101535952D01*
X127958809Y-101612142D01*
X127996904Y-101726428D01*
X127996904Y-101916904D01*
X127996904Y-100507380D02*
X127196904Y-100507380D01*
X127577857Y-100507380D02*
X127577857Y-100050238D01*
X127996904Y-100050238D02*
X127196904Y-100050238D01*
X127958809Y-99364523D02*
X127996904Y-99440714D01*
X127996904Y-99593095D01*
X127958809Y-99669285D01*
X127882619Y-99707380D01*
X127577857Y-99707380D01*
X127501666Y-99669285D01*
X127463571Y-99593095D01*
X127463571Y-99440714D01*
X127501666Y-99364523D01*
X127577857Y-99326428D01*
X127654047Y-99326428D01*
X127730238Y-99707380D01*
X127463571Y-98983571D02*
X127996904Y-98983571D01*
X127539761Y-98983571D02*
X127501666Y-98945476D01*
X127463571Y-98869285D01*
X127463571Y-98755000D01*
X127501666Y-98678809D01*
X127577857Y-98640714D01*
X127996904Y-98640714D01*
X127996904Y-97916904D02*
X127196904Y-97916904D01*
X127958809Y-97916904D02*
X127996904Y-97993095D01*
X127996904Y-98145476D01*
X127958809Y-98221666D01*
X127920714Y-98259761D01*
X127844523Y-98297857D01*
X127615952Y-98297857D01*
X127539761Y-98259761D01*
X127501666Y-98221666D01*
X127463571Y-98145476D01*
X127463571Y-97993095D01*
X127501666Y-97916904D01*
X127958809Y-97231190D02*
X127996904Y-97307380D01*
X127996904Y-97459761D01*
X127958809Y-97535952D01*
X127882619Y-97574047D01*
X127577857Y-97574047D01*
X127501666Y-97535952D01*
X127463571Y-97459761D01*
X127463571Y-97307380D01*
X127501666Y-97231190D01*
X127577857Y-97193095D01*
X127654047Y-97193095D01*
X127730238Y-97574047D01*
X127996904Y-96850238D02*
X127463571Y-96850238D01*
X127615952Y-96850238D02*
X127539761Y-96812142D01*
X127501666Y-96774047D01*
X127463571Y-96697857D01*
X127463571Y-96621666D01*
X127958809Y-96393095D02*
X127996904Y-96316904D01*
X127996904Y-96164523D01*
X127958809Y-96088333D01*
X127882619Y-96050238D01*
X127844523Y-96050238D01*
X127768333Y-96088333D01*
X127730238Y-96164523D01*
X127730238Y-96278809D01*
X127692142Y-96355000D01*
X127615952Y-96393095D01*
X127577857Y-96393095D01*
X127501666Y-96355000D01*
X127463571Y-96278809D01*
X127463571Y-96164523D01*
X127501666Y-96088333D01*
X127996904Y-95593095D02*
X127958809Y-95669285D01*
X127920714Y-95707380D01*
X127844523Y-95745476D01*
X127615952Y-95745476D01*
X127539761Y-95707380D01*
X127501666Y-95669285D01*
X127463571Y-95593095D01*
X127463571Y-95478809D01*
X127501666Y-95402619D01*
X127539761Y-95364523D01*
X127615952Y-95326428D01*
X127844523Y-95326428D01*
X127920714Y-95364523D01*
X127958809Y-95402619D01*
X127996904Y-95478809D01*
X127996904Y-95593095D01*
X127463571Y-94983571D02*
X127996904Y-94983571D01*
X127539761Y-94983571D02*
X127501666Y-94945476D01*
X127463571Y-94869285D01*
X127463571Y-94755000D01*
X127501666Y-94678809D01*
X127577857Y-94640714D01*
X127996904Y-94640714D01*
X127920714Y-94259761D02*
X127958809Y-94221666D01*
X127996904Y-94259761D01*
X127958809Y-94297857D01*
X127920714Y-94259761D01*
X127996904Y-94259761D01*
X127463571Y-92926428D02*
X128111190Y-92926428D01*
X128187380Y-92964523D01*
X128225476Y-93002619D01*
X128263571Y-93078809D01*
X128263571Y-93193095D01*
X128225476Y-93269285D01*
X127958809Y-92926428D02*
X127996904Y-93002619D01*
X127996904Y-93155000D01*
X127958809Y-93231190D01*
X127920714Y-93269285D01*
X127844523Y-93307380D01*
X127615952Y-93307380D01*
X127539761Y-93269285D01*
X127501666Y-93231190D01*
X127463571Y-93155000D01*
X127463571Y-93002619D01*
X127501666Y-92926428D01*
X127996904Y-92545476D02*
X127463571Y-92545476D01*
X127196904Y-92545476D02*
X127235000Y-92583571D01*
X127273095Y-92545476D01*
X127235000Y-92507380D01*
X127196904Y-92545476D01*
X127273095Y-92545476D01*
X127463571Y-92278809D02*
X127463571Y-91974047D01*
X127196904Y-92164523D02*
X127882619Y-92164523D01*
X127958809Y-92126428D01*
X127996904Y-92050238D01*
X127996904Y-91974047D01*
X127996904Y-91707380D02*
X127196904Y-91707380D01*
X127996904Y-91364523D02*
X127577857Y-91364523D01*
X127501666Y-91402619D01*
X127463571Y-91478809D01*
X127463571Y-91593095D01*
X127501666Y-91669285D01*
X127539761Y-91707380D01*
X127463571Y-90640714D02*
X127996904Y-90640714D01*
X127463571Y-90983571D02*
X127882619Y-90983571D01*
X127958809Y-90945476D01*
X127996904Y-90869285D01*
X127996904Y-90755000D01*
X127958809Y-90678809D01*
X127920714Y-90640714D01*
X127996904Y-90259761D02*
X127196904Y-90259761D01*
X127501666Y-90259761D02*
X127463571Y-90183571D01*
X127463571Y-90031190D01*
X127501666Y-89955000D01*
X127539761Y-89916904D01*
X127615952Y-89878809D01*
X127844523Y-89878809D01*
X127920714Y-89916904D01*
X127958809Y-89955000D01*
X127996904Y-90031190D01*
X127996904Y-90183571D01*
X127958809Y-90259761D01*
X127920714Y-89535952D02*
X127958809Y-89497857D01*
X127996904Y-89535952D01*
X127958809Y-89574047D01*
X127920714Y-89535952D01*
X127996904Y-89535952D01*
X127958809Y-88812142D02*
X127996904Y-88888333D01*
X127996904Y-89040714D01*
X127958809Y-89116904D01*
X127920714Y-89155000D01*
X127844523Y-89193095D01*
X127615952Y-89193095D01*
X127539761Y-89155000D01*
X127501666Y-89116904D01*
X127463571Y-89040714D01*
X127463571Y-88888333D01*
X127501666Y-88812142D01*
X127996904Y-88355000D02*
X127958809Y-88431190D01*
X127920714Y-88469285D01*
X127844523Y-88507380D01*
X127615952Y-88507380D01*
X127539761Y-88469285D01*
X127501666Y-88431190D01*
X127463571Y-88355000D01*
X127463571Y-88240714D01*
X127501666Y-88164523D01*
X127539761Y-88126428D01*
X127615952Y-88088333D01*
X127844523Y-88088333D01*
X127920714Y-88126428D01*
X127958809Y-88164523D01*
X127996904Y-88240714D01*
X127996904Y-88355000D01*
X127996904Y-87745476D02*
X127463571Y-87745476D01*
X127539761Y-87745476D02*
X127501666Y-87707380D01*
X127463571Y-87631190D01*
X127463571Y-87516904D01*
X127501666Y-87440714D01*
X127577857Y-87402619D01*
X127996904Y-87402619D01*
X127577857Y-87402619D02*
X127501666Y-87364523D01*
X127463571Y-87288333D01*
X127463571Y-87174047D01*
X127501666Y-87097857D01*
X127577857Y-87059761D01*
X127996904Y-87059761D01*
X127158809Y-86107380D02*
X128187380Y-86793095D01*
X127996904Y-85497857D02*
X127196904Y-85497857D01*
X127958809Y-85497857D02*
X127996904Y-85574047D01*
X127996904Y-85726428D01*
X127958809Y-85802619D01*
X127920714Y-85840714D01*
X127844523Y-85878809D01*
X127615952Y-85878809D01*
X127539761Y-85840714D01*
X127501666Y-85802619D01*
X127463571Y-85726428D01*
X127463571Y-85574047D01*
X127501666Y-85497857D01*
X127996904Y-85116904D02*
X127196904Y-85116904D01*
X127996904Y-84774047D02*
X127577857Y-84774047D01*
X127501666Y-84812142D01*
X127463571Y-84888333D01*
X127463571Y-85002619D01*
X127501666Y-85078809D01*
X127539761Y-85116904D01*
X127273095Y-84431190D02*
X127235000Y-84393095D01*
X127196904Y-84316904D01*
X127196904Y-84126428D01*
X127235000Y-84050238D01*
X127273095Y-84012142D01*
X127349285Y-83974047D01*
X127425476Y-83974047D01*
X127539761Y-84012142D01*
X127996904Y-84469285D01*
X127996904Y-83974047D01*
X127996904Y-83212142D02*
X127996904Y-83669285D01*
X127996904Y-83440714D02*
X127196904Y-83440714D01*
X127311190Y-83516904D01*
X127387380Y-83593095D01*
X127425476Y-83669285D01*
X127996904Y-82831190D02*
X127996904Y-82678809D01*
X127958809Y-82602619D01*
X127920714Y-82564523D01*
X127806428Y-82488333D01*
X127654047Y-82450238D01*
X127349285Y-82450238D01*
X127273095Y-82488333D01*
X127235000Y-82526428D01*
X127196904Y-82602619D01*
X127196904Y-82755000D01*
X127235000Y-82831190D01*
X127273095Y-82869285D01*
X127349285Y-82907380D01*
X127539761Y-82907380D01*
X127615952Y-82869285D01*
X127654047Y-82831190D01*
X127692142Y-82755000D01*
X127692142Y-82602619D01*
X127654047Y-82526428D01*
X127615952Y-82488333D01*
X127539761Y-82450238D01*
D11*
X118290000Y-117851428D02*
X118290000Y-114014523D01*
X120451904Y-114788333D02*
X120451904Y-115740714D01*
X120690000Y-116246666D01*
X120928095Y-116514523D01*
X121642380Y-117080000D01*
X122594761Y-117437142D01*
X124499523Y-117675238D01*
X124975714Y-117496666D01*
X125213809Y-117288333D01*
X125451904Y-116841904D01*
X125451904Y-115889523D01*
X125213809Y-115383571D01*
X124975714Y-115115714D01*
X124499523Y-114818095D01*
X123309047Y-114669285D01*
X122832857Y-114847857D01*
X122594761Y-115056190D01*
X122356666Y-115502619D01*
X122356666Y-116455000D01*
X122594761Y-116960952D01*
X122832857Y-117228809D01*
X123309047Y-117526428D01*
X118290000Y-114014523D02*
X118290000Y-109252619D01*
X122594761Y-111722857D02*
X122356666Y-112169285D01*
X122118571Y-112377619D01*
X121642380Y-112556190D01*
X121404285Y-112526428D01*
X120928095Y-112228809D01*
X120690000Y-111960952D01*
X120451904Y-111455000D01*
X120451904Y-110502619D01*
X120690000Y-110056190D01*
X120928095Y-109847857D01*
X121404285Y-109669285D01*
X121642380Y-109699047D01*
X122118571Y-109996666D01*
X122356666Y-110264523D01*
X122594761Y-110770476D01*
X122594761Y-111722857D01*
X122832857Y-112228809D01*
X123070952Y-112496666D01*
X123547142Y-112794285D01*
X124499523Y-112913333D01*
X124975714Y-112734761D01*
X125213809Y-112526428D01*
X125451904Y-112080000D01*
X125451904Y-111127619D01*
X125213809Y-110621666D01*
X124975714Y-110353809D01*
X124499523Y-110056190D01*
X123547142Y-109937142D01*
X123070952Y-110115714D01*
X122832857Y-110324047D01*
X122594761Y-110770476D01*
X118290000Y-109252619D02*
X118290000Y-105205000D01*
X125451904Y-108032380D02*
X120451904Y-107407380D01*
X123547142Y-107318095D02*
X125451904Y-106127619D01*
X122118571Y-105710952D02*
X124023333Y-107853809D01*
X118290000Y-105205000D02*
X118290000Y-101395476D01*
X118290000Y-101395476D02*
X118290000Y-96395476D01*
X125451904Y-100175238D02*
X120451904Y-99550238D01*
X120451904Y-98359761D01*
X120690000Y-97675238D01*
X121166190Y-97258571D01*
X121642380Y-97080000D01*
X122594761Y-96960952D01*
X123309047Y-97050238D01*
X124261428Y-97407380D01*
X124737619Y-97705000D01*
X125213809Y-98240714D01*
X125451904Y-98984761D01*
X125451904Y-100175238D01*
X118290000Y-96395476D02*
X118290000Y-91871666D01*
X122832857Y-94847857D02*
X122832857Y-93181190D01*
X125451904Y-92794285D02*
X125451904Y-95175238D01*
X120451904Y-94550238D01*
X120451904Y-92169285D01*
X118290000Y-91871666D02*
X118290000Y-86871666D01*
X122832857Y-88657380D02*
X123070952Y-87972857D01*
X123309047Y-87764523D01*
X123785238Y-87585952D01*
X124499523Y-87675238D01*
X124975714Y-87972857D01*
X125213809Y-88240714D01*
X125451904Y-88746666D01*
X125451904Y-90651428D01*
X120451904Y-90026428D01*
X120451904Y-88359761D01*
X120690000Y-87913333D01*
X120928095Y-87705000D01*
X121404285Y-87526428D01*
X121880476Y-87585952D01*
X122356666Y-87883571D01*
X122594761Y-88151428D01*
X122832857Y-88657380D01*
X122832857Y-90324047D01*
X118290000Y-86871666D02*
X118290000Y-81633571D01*
X120451904Y-85026428D02*
X124499523Y-85532380D01*
X124975714Y-85353809D01*
X125213809Y-85145476D01*
X125451904Y-84699047D01*
X125451904Y-83746666D01*
X125213809Y-83240714D01*
X124975714Y-82972857D01*
X124499523Y-82675238D01*
X120451904Y-82169285D01*
X118290000Y-81633571D02*
X118290000Y-76633571D01*
X120690000Y-77199047D02*
X120451904Y-77645476D01*
X120451904Y-78359761D01*
X120690000Y-79103809D01*
X121166190Y-79639523D01*
X121642380Y-79937142D01*
X122594761Y-80294285D01*
X123309047Y-80383571D01*
X124261428Y-80264523D01*
X124737619Y-80085952D01*
X125213809Y-79669285D01*
X125451904Y-78984761D01*
X125451904Y-78508571D01*
X125213809Y-77764523D01*
X124975714Y-77496666D01*
X123309047Y-77288333D01*
X123309047Y-78240714D01*
D12*
X142020714Y-59988690D02*
X142020714Y-58438690D01*
X142306428Y-58438690D01*
X142477857Y-58512500D01*
X142592142Y-58660119D01*
X142649285Y-58807738D01*
X142706428Y-59102976D01*
X142706428Y-59324404D01*
X142649285Y-59619642D01*
X142592142Y-59767261D01*
X142477857Y-59914880D01*
X142306428Y-59988690D01*
X142020714Y-59988690D01*
X143792142Y-58438690D02*
X143220714Y-58438690D01*
X143163571Y-59176785D01*
X143220714Y-59102976D01*
X143335000Y-59029166D01*
X143620714Y-59029166D01*
X143735000Y-59102976D01*
X143792142Y-59176785D01*
X143849285Y-59324404D01*
X143849285Y-59693452D01*
X143792142Y-59841071D01*
X143735000Y-59914880D01*
X143620714Y-59988690D01*
X143335000Y-59988690D01*
X143220714Y-59914880D01*
X143163571Y-59841071D01*
X142020714Y-62513690D02*
X142020714Y-60963690D01*
X142306428Y-60963690D01*
X142477857Y-61037500D01*
X142592142Y-61185119D01*
X142649285Y-61332738D01*
X142706428Y-61627976D01*
X142706428Y-61849404D01*
X142649285Y-62144642D01*
X142592142Y-62292261D01*
X142477857Y-62439880D01*
X142306428Y-62513690D01*
X142020714Y-62513690D01*
X143735000Y-60963690D02*
X143506428Y-60963690D01*
X143392142Y-61037500D01*
X143335000Y-61111309D01*
X143220714Y-61332738D01*
X143163571Y-61627976D01*
X143163571Y-62218452D01*
X143220714Y-62366071D01*
X143277857Y-62439880D01*
X143392142Y-62513690D01*
X143620714Y-62513690D01*
X143735000Y-62439880D01*
X143792142Y-62366071D01*
X143849285Y-62218452D01*
X143849285Y-61849404D01*
X143792142Y-61701785D01*
X143735000Y-61627976D01*
X143620714Y-61554166D01*
X143392142Y-61554166D01*
X143277857Y-61627976D01*
X143220714Y-61701785D01*
X143163571Y-61849404D01*
X142020714Y-65038690D02*
X142020714Y-63488690D01*
X142306428Y-63488690D01*
X142477857Y-63562500D01*
X142592142Y-63710119D01*
X142649285Y-63857738D01*
X142706428Y-64152976D01*
X142706428Y-64374404D01*
X142649285Y-64669642D01*
X142592142Y-64817261D01*
X142477857Y-64964880D01*
X142306428Y-65038690D01*
X142020714Y-65038690D01*
X143106428Y-63488690D02*
X143906428Y-63488690D01*
X143392142Y-65038690D01*
X142020714Y-67563690D02*
X142020714Y-66013690D01*
X142306428Y-66013690D01*
X142477857Y-66087500D01*
X142592142Y-66235119D01*
X142649285Y-66382738D01*
X142706428Y-66677976D01*
X142706428Y-66899404D01*
X142649285Y-67194642D01*
X142592142Y-67342261D01*
X142477857Y-67489880D01*
X142306428Y-67563690D01*
X142020714Y-67563690D01*
X143392142Y-66677976D02*
X143277857Y-66604166D01*
X143220714Y-66530357D01*
X143163571Y-66382738D01*
X143163571Y-66308928D01*
X143220714Y-66161309D01*
X143277857Y-66087500D01*
X143392142Y-66013690D01*
X143620714Y-66013690D01*
X143735000Y-66087500D01*
X143792142Y-66161309D01*
X143849285Y-66308928D01*
X143849285Y-66382738D01*
X143792142Y-66530357D01*
X143735000Y-66604166D01*
X143620714Y-66677976D01*
X143392142Y-66677976D01*
X143277857Y-66751785D01*
X143220714Y-66825595D01*
X143163571Y-66973214D01*
X143163571Y-67268452D01*
X143220714Y-67416071D01*
X143277857Y-67489880D01*
X143392142Y-67563690D01*
X143620714Y-67563690D01*
X143735000Y-67489880D01*
X143792142Y-67416071D01*
X143849285Y-67268452D01*
X143849285Y-66973214D01*
X143792142Y-66825595D01*
X143735000Y-66751785D01*
X143620714Y-66677976D01*
X142020714Y-70088690D02*
X142020714Y-68538690D01*
X142306428Y-68538690D01*
X142477857Y-68612500D01*
X142592142Y-68760119D01*
X142649285Y-68907738D01*
X142706428Y-69202976D01*
X142706428Y-69424404D01*
X142649285Y-69719642D01*
X142592142Y-69867261D01*
X142477857Y-70014880D01*
X142306428Y-70088690D01*
X142020714Y-70088690D01*
X143277857Y-70088690D02*
X143506428Y-70088690D01*
X143620714Y-70014880D01*
X143677857Y-69941071D01*
X143792142Y-69719642D01*
X143849285Y-69424404D01*
X143849285Y-68833928D01*
X143792142Y-68686309D01*
X143735000Y-68612500D01*
X143620714Y-68538690D01*
X143392142Y-68538690D01*
X143277857Y-68612500D01*
X143220714Y-68686309D01*
X143163571Y-68833928D01*
X143163571Y-69202976D01*
X143220714Y-69350595D01*
X143277857Y-69424404D01*
X143392142Y-69498214D01*
X143620714Y-69498214D01*
X143735000Y-69424404D01*
X143792142Y-69350595D01*
X143849285Y-69202976D01*
X142020714Y-72613690D02*
X142020714Y-71063690D01*
X142306428Y-71063690D01*
X142477857Y-71137500D01*
X142592142Y-71285119D01*
X142649285Y-71432738D01*
X142706428Y-71727976D01*
X142706428Y-71949404D01*
X142649285Y-72244642D01*
X142592142Y-72392261D01*
X142477857Y-72539880D01*
X142306428Y-72613690D01*
X142020714Y-72613690D01*
X143849285Y-72613690D02*
X143163571Y-72613690D01*
X143506428Y-72613690D02*
X143506428Y-71063690D01*
X143392142Y-71285119D01*
X143277857Y-71432738D01*
X143163571Y-71506547D01*
X144592142Y-71063690D02*
X144706428Y-71063690D01*
X144820714Y-71137500D01*
X144877857Y-71211309D01*
X144935000Y-71358928D01*
X144992142Y-71654166D01*
X144992142Y-72023214D01*
X144935000Y-72318452D01*
X144877857Y-72466071D01*
X144820714Y-72539880D01*
X144706428Y-72613690D01*
X144592142Y-72613690D01*
X144477857Y-72539880D01*
X144420714Y-72466071D01*
X144363571Y-72318452D01*
X144306428Y-72023214D01*
X144306428Y-71654166D01*
X144363571Y-71358928D01*
X144420714Y-71211309D01*
X144477857Y-71137500D01*
X144592142Y-71063690D01*
X142020714Y-75138690D02*
X142020714Y-73588690D01*
X142306428Y-73588690D01*
X142477857Y-73662500D01*
X142592142Y-73810119D01*
X142649285Y-73957738D01*
X142706428Y-74252976D01*
X142706428Y-74474404D01*
X142649285Y-74769642D01*
X142592142Y-74917261D01*
X142477857Y-75064880D01*
X142306428Y-75138690D01*
X142020714Y-75138690D01*
X143849285Y-75138690D02*
X143163571Y-75138690D01*
X143506428Y-75138690D02*
X143506428Y-73588690D01*
X143392142Y-73810119D01*
X143277857Y-73957738D01*
X143163571Y-74031547D01*
X144992142Y-75138690D02*
X144306428Y-75138690D01*
X144649285Y-75138690D02*
X144649285Y-73588690D01*
X144535000Y-73810119D01*
X144420714Y-73957738D01*
X144306428Y-74031547D01*
X142020714Y-77663690D02*
X142020714Y-76113690D01*
X142306428Y-76113690D01*
X142477857Y-76187500D01*
X142592142Y-76335119D01*
X142649285Y-76482738D01*
X142706428Y-76777976D01*
X142706428Y-76999404D01*
X142649285Y-77294642D01*
X142592142Y-77442261D01*
X142477857Y-77589880D01*
X142306428Y-77663690D01*
X142020714Y-77663690D01*
X143849285Y-77663690D02*
X143163571Y-77663690D01*
X143506428Y-77663690D02*
X143506428Y-76113690D01*
X143392142Y-76335119D01*
X143277857Y-76482738D01*
X143163571Y-76556547D01*
X144306428Y-76261309D02*
X144363571Y-76187500D01*
X144477857Y-76113690D01*
X144763571Y-76113690D01*
X144877857Y-76187500D01*
X144935000Y-76261309D01*
X144992142Y-76408928D01*
X144992142Y-76556547D01*
X144935000Y-76777976D01*
X144249285Y-77663690D01*
X144992142Y-77663690D01*
X142020714Y-80188690D02*
X142020714Y-78638690D01*
X142306428Y-78638690D01*
X142477857Y-78712500D01*
X142592142Y-78860119D01*
X142649285Y-79007738D01*
X142706428Y-79302976D01*
X142706428Y-79524404D01*
X142649285Y-79819642D01*
X142592142Y-79967261D01*
X142477857Y-80114880D01*
X142306428Y-80188690D01*
X142020714Y-80188690D01*
X143849285Y-80188690D02*
X143163571Y-80188690D01*
X143506428Y-80188690D02*
X143506428Y-78638690D01*
X143392142Y-78860119D01*
X143277857Y-79007738D01*
X143163571Y-79081547D01*
X144249285Y-78638690D02*
X144992142Y-78638690D01*
X144592142Y-79229166D01*
X144763571Y-79229166D01*
X144877857Y-79302976D01*
X144935000Y-79376785D01*
X144992142Y-79524404D01*
X144992142Y-79893452D01*
X144935000Y-80041071D01*
X144877857Y-80114880D01*
X144763571Y-80188690D01*
X144420714Y-80188690D01*
X144306428Y-80114880D01*
X144249285Y-80041071D01*
X142020714Y-82713690D02*
X142020714Y-81163690D01*
X142306428Y-81163690D01*
X142477857Y-81237500D01*
X142592142Y-81385119D01*
X142649285Y-81532738D01*
X142706428Y-81827976D01*
X142706428Y-82049404D01*
X142649285Y-82344642D01*
X142592142Y-82492261D01*
X142477857Y-82639880D01*
X142306428Y-82713690D01*
X142020714Y-82713690D01*
X143849285Y-82713690D02*
X143163571Y-82713690D01*
X143506428Y-82713690D02*
X143506428Y-81163690D01*
X143392142Y-81385119D01*
X143277857Y-81532738D01*
X143163571Y-81606547D01*
X144877857Y-81680357D02*
X144877857Y-82713690D01*
X144592142Y-81089880D02*
X144306428Y-82197023D01*
X145049285Y-82197023D01*
X142020714Y-85238690D02*
X142020714Y-83688690D01*
X142306428Y-83688690D01*
X142477857Y-83762500D01*
X142592142Y-83910119D01*
X142649285Y-84057738D01*
X142706428Y-84352976D01*
X142706428Y-84574404D01*
X142649285Y-84869642D01*
X142592142Y-85017261D01*
X142477857Y-85164880D01*
X142306428Y-85238690D01*
X142020714Y-85238690D01*
X143849285Y-85238690D02*
X143163571Y-85238690D01*
X143506428Y-85238690D02*
X143506428Y-83688690D01*
X143392142Y-83910119D01*
X143277857Y-84057738D01*
X143163571Y-84131547D01*
X144935000Y-83688690D02*
X144363571Y-83688690D01*
X144306428Y-84426785D01*
X144363571Y-84352976D01*
X144477857Y-84279166D01*
X144763571Y-84279166D01*
X144877857Y-84352976D01*
X144935000Y-84426785D01*
X144992142Y-84574404D01*
X144992142Y-84943452D01*
X144935000Y-85091071D01*
X144877857Y-85164880D01*
X144763571Y-85238690D01*
X144477857Y-85238690D01*
X144363571Y-85164880D01*
X144306428Y-85091071D01*
X141963571Y-89845833D02*
X142535000Y-89845833D01*
X141849285Y-90288690D02*
X142249285Y-88738690D01*
X142649285Y-90288690D01*
X142992142Y-88886309D02*
X143049285Y-88812500D01*
X143163571Y-88738690D01*
X143449285Y-88738690D01*
X143563571Y-88812500D01*
X143620714Y-88886309D01*
X143677857Y-89033928D01*
X143677857Y-89181547D01*
X143620714Y-89402976D01*
X142935000Y-90288690D01*
X143677857Y-90288690D01*
X144077857Y-88738690D02*
X144820714Y-88738690D01*
X144420714Y-89329166D01*
X144592142Y-89329166D01*
X144706428Y-89402976D01*
X144763571Y-89476785D01*
X144820714Y-89624404D01*
X144820714Y-89993452D01*
X144763571Y-90141071D01*
X144706428Y-90214880D01*
X144592142Y-90288690D01*
X144249285Y-90288690D01*
X144135000Y-90214880D01*
X144077857Y-90141071D01*
X141963571Y-92370833D02*
X142535000Y-92370833D01*
X141849285Y-92813690D02*
X142249285Y-91263690D01*
X142649285Y-92813690D01*
X142992142Y-91411309D02*
X143049285Y-91337500D01*
X143163571Y-91263690D01*
X143449285Y-91263690D01*
X143563571Y-91337500D01*
X143620714Y-91411309D01*
X143677857Y-91558928D01*
X143677857Y-91706547D01*
X143620714Y-91927976D01*
X142935000Y-92813690D01*
X143677857Y-92813690D01*
X144135000Y-91411309D02*
X144192142Y-91337500D01*
X144306428Y-91263690D01*
X144592142Y-91263690D01*
X144706428Y-91337500D01*
X144763571Y-91411309D01*
X144820714Y-91558928D01*
X144820714Y-91706547D01*
X144763571Y-91927976D01*
X144077857Y-92813690D01*
X144820714Y-92813690D01*
X141963571Y-94895833D02*
X142535000Y-94895833D01*
X141849285Y-95338690D02*
X142249285Y-93788690D01*
X142649285Y-95338690D01*
X142992142Y-93936309D02*
X143049285Y-93862500D01*
X143163571Y-93788690D01*
X143449285Y-93788690D01*
X143563571Y-93862500D01*
X143620714Y-93936309D01*
X143677857Y-94083928D01*
X143677857Y-94231547D01*
X143620714Y-94452976D01*
X142935000Y-95338690D01*
X143677857Y-95338690D01*
X144820714Y-95338690D02*
X144135000Y-95338690D01*
X144477857Y-95338690D02*
X144477857Y-93788690D01*
X144363571Y-94010119D01*
X144249285Y-94157738D01*
X144135000Y-94231547D01*
X141963571Y-99945833D02*
X142535000Y-99945833D01*
X141849285Y-100388690D02*
X142249285Y-98838690D01*
X142649285Y-100388690D01*
X142992142Y-98986309D02*
X143049285Y-98912500D01*
X143163571Y-98838690D01*
X143449285Y-98838690D01*
X143563571Y-98912500D01*
X143620714Y-98986309D01*
X143677857Y-99133928D01*
X143677857Y-99281547D01*
X143620714Y-99502976D01*
X142935000Y-100388690D01*
X143677857Y-100388690D01*
X144420714Y-98838690D02*
X144535000Y-98838690D01*
X144649285Y-98912500D01*
X144706428Y-98986309D01*
X144763571Y-99133928D01*
X144820714Y-99429166D01*
X144820714Y-99798214D01*
X144763571Y-100093452D01*
X144706428Y-100241071D01*
X144649285Y-100314880D01*
X144535000Y-100388690D01*
X144420714Y-100388690D01*
X144306428Y-100314880D01*
X144249285Y-100241071D01*
X144192142Y-100093452D01*
X144135000Y-99798214D01*
X144135000Y-99429166D01*
X144192142Y-99133928D01*
X144249285Y-98986309D01*
X144306428Y-98912500D01*
X144420714Y-98838690D01*
X141963571Y-102470833D02*
X142535000Y-102470833D01*
X141849285Y-102913690D02*
X142249285Y-101363690D01*
X142649285Y-102913690D01*
X143677857Y-102913690D02*
X142992142Y-102913690D01*
X143335000Y-102913690D02*
X143335000Y-101363690D01*
X143220714Y-101585119D01*
X143106428Y-101732738D01*
X142992142Y-101806547D01*
X144249285Y-102913690D02*
X144477857Y-102913690D01*
X144592142Y-102839880D01*
X144649285Y-102766071D01*
X144763571Y-102544642D01*
X144820714Y-102249404D01*
X144820714Y-101658928D01*
X144763571Y-101511309D01*
X144706428Y-101437500D01*
X144592142Y-101363690D01*
X144363571Y-101363690D01*
X144249285Y-101437500D01*
X144192142Y-101511309D01*
X144135000Y-101658928D01*
X144135000Y-102027976D01*
X144192142Y-102175595D01*
X144249285Y-102249404D01*
X144363571Y-102323214D01*
X144592142Y-102323214D01*
X144706428Y-102249404D01*
X144763571Y-102175595D01*
X144820714Y-102027976D01*
X141963571Y-104995833D02*
X142535000Y-104995833D01*
X141849285Y-105438690D02*
X142249285Y-103888690D01*
X142649285Y-105438690D01*
X143677857Y-105438690D02*
X142992142Y-105438690D01*
X143335000Y-105438690D02*
X143335000Y-103888690D01*
X143220714Y-104110119D01*
X143106428Y-104257738D01*
X142992142Y-104331547D01*
X144363571Y-104552976D02*
X144249285Y-104479166D01*
X144192142Y-104405357D01*
X144135000Y-104257738D01*
X144135000Y-104183928D01*
X144192142Y-104036309D01*
X144249285Y-103962500D01*
X144363571Y-103888690D01*
X144592142Y-103888690D01*
X144706428Y-103962500D01*
X144763571Y-104036309D01*
X144820714Y-104183928D01*
X144820714Y-104257738D01*
X144763571Y-104405357D01*
X144706428Y-104479166D01*
X144592142Y-104552976D01*
X144363571Y-104552976D01*
X144249285Y-104626785D01*
X144192142Y-104700595D01*
X144135000Y-104848214D01*
X144135000Y-105143452D01*
X144192142Y-105291071D01*
X144249285Y-105364880D01*
X144363571Y-105438690D01*
X144592142Y-105438690D01*
X144706428Y-105364880D01*
X144763571Y-105291071D01*
X144820714Y-105143452D01*
X144820714Y-104848214D01*
X144763571Y-104700595D01*
X144706428Y-104626785D01*
X144592142Y-104552976D01*
X141963571Y-107520833D02*
X142535000Y-107520833D01*
X141849285Y-107963690D02*
X142249285Y-106413690D01*
X142649285Y-107963690D01*
X143677857Y-107963690D02*
X142992142Y-107963690D01*
X143335000Y-107963690D02*
X143335000Y-106413690D01*
X143220714Y-106635119D01*
X143106428Y-106782738D01*
X142992142Y-106856547D01*
X144077857Y-106413690D02*
X144877857Y-106413690D01*
X144363571Y-107963690D01*
X141963571Y-110045833D02*
X142535000Y-110045833D01*
X141849285Y-110488690D02*
X142249285Y-108938690D01*
X142649285Y-110488690D01*
X143677857Y-110488690D02*
X142992142Y-110488690D01*
X143335000Y-110488690D02*
X143335000Y-108938690D01*
X143220714Y-109160119D01*
X143106428Y-109307738D01*
X142992142Y-109381547D01*
X144706428Y-108938690D02*
X144477857Y-108938690D01*
X144363571Y-109012500D01*
X144306428Y-109086309D01*
X144192142Y-109307738D01*
X144135000Y-109602976D01*
X144135000Y-110193452D01*
X144192142Y-110341071D01*
X144249285Y-110414880D01*
X144363571Y-110488690D01*
X144592142Y-110488690D01*
X144706428Y-110414880D01*
X144763571Y-110341071D01*
X144820714Y-110193452D01*
X144820714Y-109824404D01*
X144763571Y-109676785D01*
X144706428Y-109602976D01*
X144592142Y-109529166D01*
X144363571Y-109529166D01*
X144249285Y-109602976D01*
X144192142Y-109676785D01*
X144135000Y-109824404D01*
X141963571Y-112570833D02*
X142535000Y-112570833D01*
X141849285Y-113013690D02*
X142249285Y-111463690D01*
X142649285Y-113013690D01*
X143677857Y-113013690D02*
X142992142Y-113013690D01*
X143335000Y-113013690D02*
X143335000Y-111463690D01*
X143220714Y-111685119D01*
X143106428Y-111832738D01*
X142992142Y-111906547D01*
X144763571Y-111463690D02*
X144192142Y-111463690D01*
X144135000Y-112201785D01*
X144192142Y-112127976D01*
X144306428Y-112054166D01*
X144592142Y-112054166D01*
X144706428Y-112127976D01*
X144763571Y-112201785D01*
X144820714Y-112349404D01*
X144820714Y-112718452D01*
X144763571Y-112866071D01*
X144706428Y-112939880D01*
X144592142Y-113013690D01*
X144306428Y-113013690D01*
X144192142Y-112939880D01*
X144135000Y-112866071D01*
X141963571Y-115095833D02*
X142535000Y-115095833D01*
X141849285Y-115538690D02*
X142249285Y-113988690D01*
X142649285Y-115538690D01*
X143677857Y-115538690D02*
X142992142Y-115538690D01*
X143335000Y-115538690D02*
X143335000Y-113988690D01*
X143220714Y-114210119D01*
X143106428Y-114357738D01*
X142992142Y-114431547D01*
X144706428Y-114505357D02*
X144706428Y-115538690D01*
X144420714Y-113914880D02*
X144135000Y-115022023D01*
X144877857Y-115022023D01*
X141963571Y-117620833D02*
X142535000Y-117620833D01*
X141849285Y-118063690D02*
X142249285Y-116513690D01*
X142649285Y-118063690D01*
X143677857Y-118063690D02*
X142992142Y-118063690D01*
X143335000Y-118063690D02*
X143335000Y-116513690D01*
X143220714Y-116735119D01*
X143106428Y-116882738D01*
X142992142Y-116956547D01*
X144077857Y-116513690D02*
X144820714Y-116513690D01*
X144420714Y-117104166D01*
X144592142Y-117104166D01*
X144706428Y-117177976D01*
X144763571Y-117251785D01*
X144820714Y-117399404D01*
X144820714Y-117768452D01*
X144763571Y-117916071D01*
X144706428Y-117989880D01*
X144592142Y-118063690D01*
X144249285Y-118063690D01*
X144135000Y-117989880D01*
X144077857Y-117916071D01*
X141963571Y-120145833D02*
X142535000Y-120145833D01*
X141849285Y-120588690D02*
X142249285Y-119038690D01*
X142649285Y-120588690D01*
X143677857Y-120588690D02*
X142992142Y-120588690D01*
X143335000Y-120588690D02*
X143335000Y-119038690D01*
X143220714Y-119260119D01*
X143106428Y-119407738D01*
X142992142Y-119481547D01*
X144135000Y-119186309D02*
X144192142Y-119112500D01*
X144306428Y-119038690D01*
X144592142Y-119038690D01*
X144706428Y-119112500D01*
X144763571Y-119186309D01*
X144820714Y-119333928D01*
X144820714Y-119481547D01*
X144763571Y-119702976D01*
X144077857Y-120588690D01*
X144820714Y-120588690D01*
X141963571Y-122670833D02*
X142535000Y-122670833D01*
X141849285Y-123113690D02*
X142249285Y-121563690D01*
X142649285Y-123113690D01*
X143677857Y-123113690D02*
X142992142Y-123113690D01*
X143335000Y-123113690D02*
X143335000Y-121563690D01*
X143220714Y-121785119D01*
X143106428Y-121932738D01*
X142992142Y-122006547D01*
X144820714Y-123113690D02*
X144135000Y-123113690D01*
X144477857Y-123113690D02*
X144477857Y-121563690D01*
X144363571Y-121785119D01*
X144249285Y-121932738D01*
X144135000Y-122006547D01*
X141963571Y-125195833D02*
X142535000Y-125195833D01*
X141849285Y-125638690D02*
X142249285Y-124088690D01*
X142649285Y-125638690D01*
X143677857Y-125638690D02*
X142992142Y-125638690D01*
X143335000Y-125638690D02*
X143335000Y-124088690D01*
X143220714Y-124310119D01*
X143106428Y-124457738D01*
X142992142Y-124531547D01*
X144420714Y-124088690D02*
X144535000Y-124088690D01*
X144649285Y-124162500D01*
X144706428Y-124236309D01*
X144763571Y-124383928D01*
X144820714Y-124679166D01*
X144820714Y-125048214D01*
X144763571Y-125343452D01*
X144706428Y-125491071D01*
X144649285Y-125564880D01*
X144535000Y-125638690D01*
X144420714Y-125638690D01*
X144306428Y-125564880D01*
X144249285Y-125491071D01*
X144192142Y-125343452D01*
X144135000Y-125048214D01*
X144135000Y-124679166D01*
X144192142Y-124383928D01*
X144249285Y-124236309D01*
X144306428Y-124162500D01*
X144420714Y-124088690D01*
X141963571Y-127720833D02*
X142535000Y-127720833D01*
X141849285Y-128163690D02*
X142249285Y-126613690D01*
X142649285Y-128163690D01*
X143106428Y-128163690D02*
X143335000Y-128163690D01*
X143449285Y-128089880D01*
X143506428Y-128016071D01*
X143620714Y-127794642D01*
X143677857Y-127499404D01*
X143677857Y-126908928D01*
X143620714Y-126761309D01*
X143563571Y-126687500D01*
X143449285Y-126613690D01*
X143220714Y-126613690D01*
X143106428Y-126687500D01*
X143049285Y-126761309D01*
X142992142Y-126908928D01*
X142992142Y-127277976D01*
X143049285Y-127425595D01*
X143106428Y-127499404D01*
X143220714Y-127573214D01*
X143449285Y-127573214D01*
X143563571Y-127499404D01*
X143620714Y-127425595D01*
X143677857Y-127277976D01*
X141963571Y-130245833D02*
X142535000Y-130245833D01*
X141849285Y-130688690D02*
X142249285Y-129138690D01*
X142649285Y-130688690D01*
X143220714Y-129802976D02*
X143106428Y-129729166D01*
X143049285Y-129655357D01*
X142992142Y-129507738D01*
X142992142Y-129433928D01*
X143049285Y-129286309D01*
X143106428Y-129212500D01*
X143220714Y-129138690D01*
X143449285Y-129138690D01*
X143563571Y-129212500D01*
X143620714Y-129286309D01*
X143677857Y-129433928D01*
X143677857Y-129507738D01*
X143620714Y-129655357D01*
X143563571Y-129729166D01*
X143449285Y-129802976D01*
X143220714Y-129802976D01*
X143106428Y-129876785D01*
X143049285Y-129950595D01*
X142992142Y-130098214D01*
X142992142Y-130393452D01*
X143049285Y-130541071D01*
X143106428Y-130614880D01*
X143220714Y-130688690D01*
X143449285Y-130688690D01*
X143563571Y-130614880D01*
X143620714Y-130541071D01*
X143677857Y-130393452D01*
X143677857Y-130098214D01*
X143620714Y-129950595D01*
X143563571Y-129876785D01*
X143449285Y-129802976D01*
X141963571Y-132770833D02*
X142535000Y-132770833D01*
X141849285Y-133213690D02*
X142249285Y-131663690D01*
X142649285Y-133213690D01*
X142935000Y-131663690D02*
X143735000Y-131663690D01*
X143220714Y-133213690D01*
X141963571Y-135295833D02*
X142535000Y-135295833D01*
X141849285Y-135738690D02*
X142249285Y-134188690D01*
X142649285Y-135738690D01*
X143563571Y-134188690D02*
X143335000Y-134188690D01*
X143220714Y-134262500D01*
X143163571Y-134336309D01*
X143049285Y-134557738D01*
X142992142Y-134852976D01*
X142992142Y-135443452D01*
X143049285Y-135591071D01*
X143106428Y-135664880D01*
X143220714Y-135738690D01*
X143449285Y-135738690D01*
X143563571Y-135664880D01*
X143620714Y-135591071D01*
X143677857Y-135443452D01*
X143677857Y-135074404D01*
X143620714Y-134926785D01*
X143563571Y-134852976D01*
X143449285Y-134779166D01*
X143220714Y-134779166D01*
X143106428Y-134852976D01*
X143049285Y-134926785D01*
X142992142Y-135074404D01*
X141963571Y-137820833D02*
X142535000Y-137820833D01*
X141849285Y-138263690D02*
X142249285Y-136713690D01*
X142649285Y-138263690D01*
X143620714Y-136713690D02*
X143049285Y-136713690D01*
X142992142Y-137451785D01*
X143049285Y-137377976D01*
X143163571Y-137304166D01*
X143449285Y-137304166D01*
X143563571Y-137377976D01*
X143620714Y-137451785D01*
X143677857Y-137599404D01*
X143677857Y-137968452D01*
X143620714Y-138116071D01*
X143563571Y-138189880D01*
X143449285Y-138263690D01*
X143163571Y-138263690D01*
X143049285Y-138189880D01*
X142992142Y-138116071D01*
X133067857Y-59988690D02*
X133067857Y-58438690D01*
X133353571Y-58438690D01*
X133525000Y-58512500D01*
X133639285Y-58660119D01*
X133696428Y-58807738D01*
X133753571Y-59102976D01*
X133753571Y-59324404D01*
X133696428Y-59619642D01*
X133639285Y-59767261D01*
X133525000Y-59914880D01*
X133353571Y-59988690D01*
X133067857Y-59988690D01*
X134782142Y-58955357D02*
X134782142Y-59988690D01*
X134496428Y-58364880D02*
X134210714Y-59472023D01*
X134953571Y-59472023D01*
X133067857Y-62513690D02*
X133067857Y-60963690D01*
X133353571Y-60963690D01*
X133525000Y-61037500D01*
X133639285Y-61185119D01*
X133696428Y-61332738D01*
X133753571Y-61627976D01*
X133753571Y-61849404D01*
X133696428Y-62144642D01*
X133639285Y-62292261D01*
X133525000Y-62439880D01*
X133353571Y-62513690D01*
X133067857Y-62513690D01*
X134153571Y-60963690D02*
X134896428Y-60963690D01*
X134496428Y-61554166D01*
X134667857Y-61554166D01*
X134782142Y-61627976D01*
X134839285Y-61701785D01*
X134896428Y-61849404D01*
X134896428Y-62218452D01*
X134839285Y-62366071D01*
X134782142Y-62439880D01*
X134667857Y-62513690D01*
X134325000Y-62513690D01*
X134210714Y-62439880D01*
X134153571Y-62366071D01*
X133067857Y-65038690D02*
X133067857Y-63488690D01*
X133353571Y-63488690D01*
X133525000Y-63562500D01*
X133639285Y-63710119D01*
X133696428Y-63857738D01*
X133753571Y-64152976D01*
X133753571Y-64374404D01*
X133696428Y-64669642D01*
X133639285Y-64817261D01*
X133525000Y-64964880D01*
X133353571Y-65038690D01*
X133067857Y-65038690D01*
X134210714Y-63636309D02*
X134267857Y-63562500D01*
X134382142Y-63488690D01*
X134667857Y-63488690D01*
X134782142Y-63562500D01*
X134839285Y-63636309D01*
X134896428Y-63783928D01*
X134896428Y-63931547D01*
X134839285Y-64152976D01*
X134153571Y-65038690D01*
X134896428Y-65038690D01*
X133067857Y-67563690D02*
X133067857Y-66013690D01*
X133353571Y-66013690D01*
X133525000Y-66087500D01*
X133639285Y-66235119D01*
X133696428Y-66382738D01*
X133753571Y-66677976D01*
X133753571Y-66899404D01*
X133696428Y-67194642D01*
X133639285Y-67342261D01*
X133525000Y-67489880D01*
X133353571Y-67563690D01*
X133067857Y-67563690D01*
X134896428Y-67563690D02*
X134210714Y-67563690D01*
X134553571Y-67563690D02*
X134553571Y-66013690D01*
X134439285Y-66235119D01*
X134325000Y-66382738D01*
X134210714Y-66456547D01*
X133067857Y-70088690D02*
X133067857Y-68538690D01*
X133353571Y-68538690D01*
X133525000Y-68612500D01*
X133639285Y-68760119D01*
X133696428Y-68907738D01*
X133753571Y-69202976D01*
X133753571Y-69424404D01*
X133696428Y-69719642D01*
X133639285Y-69867261D01*
X133525000Y-70014880D01*
X133353571Y-70088690D01*
X133067857Y-70088690D01*
X134496428Y-68538690D02*
X134610714Y-68538690D01*
X134725000Y-68612500D01*
X134782142Y-68686309D01*
X134839285Y-68833928D01*
X134896428Y-69129166D01*
X134896428Y-69498214D01*
X134839285Y-69793452D01*
X134782142Y-69941071D01*
X134725000Y-70014880D01*
X134610714Y-70088690D01*
X134496428Y-70088690D01*
X134382142Y-70014880D01*
X134325000Y-69941071D01*
X134267857Y-69793452D01*
X134210714Y-69498214D01*
X134210714Y-69129166D01*
X134267857Y-68833928D01*
X134325000Y-68686309D01*
X134382142Y-68612500D01*
X134496428Y-68538690D01*
X133182142Y-72170833D02*
X133753571Y-72170833D01*
X133067857Y-72613690D02*
X133467857Y-71063690D01*
X133867857Y-72613690D01*
X134210714Y-72539880D02*
X134382142Y-72613690D01*
X134667857Y-72613690D01*
X134782142Y-72539880D01*
X134839285Y-72466071D01*
X134896428Y-72318452D01*
X134896428Y-72170833D01*
X134839285Y-72023214D01*
X134782142Y-71949404D01*
X134667857Y-71875595D01*
X134439285Y-71801785D01*
X134325000Y-71727976D01*
X134267857Y-71654166D01*
X134210714Y-71506547D01*
X134210714Y-71358928D01*
X134267857Y-71211309D01*
X134325000Y-71137500D01*
X134439285Y-71063690D01*
X134725000Y-71063690D01*
X134896428Y-71137500D01*
X131810714Y-73588690D02*
X131810714Y-74843452D01*
X131867857Y-74991071D01*
X131925000Y-75064880D01*
X132039285Y-75138690D01*
X132267857Y-75138690D01*
X132382142Y-75064880D01*
X132439285Y-74991071D01*
X132496428Y-74843452D01*
X132496428Y-73588690D01*
X133067857Y-75138690D02*
X133067857Y-73588690D01*
X133353571Y-73588690D01*
X133525000Y-73662500D01*
X133639285Y-73810119D01*
X133696428Y-73957738D01*
X133753571Y-74252976D01*
X133753571Y-74474404D01*
X133696428Y-74769642D01*
X133639285Y-74917261D01*
X133525000Y-75064880D01*
X133353571Y-75138690D01*
X133067857Y-75138690D01*
X134210714Y-75064880D02*
X134382142Y-75138690D01*
X134667857Y-75138690D01*
X134782142Y-75064880D01*
X134839285Y-74991071D01*
X134896428Y-74843452D01*
X134896428Y-74695833D01*
X134839285Y-74548214D01*
X134782142Y-74474404D01*
X134667857Y-74400595D01*
X134439285Y-74326785D01*
X134325000Y-74252976D01*
X134267857Y-74179166D01*
X134210714Y-74031547D01*
X134210714Y-73883928D01*
X134267857Y-73736309D01*
X134325000Y-73662500D01*
X134439285Y-73588690D01*
X134725000Y-73588690D01*
X134896428Y-73662500D01*
X132667857Y-77663690D02*
X132096428Y-77663690D01*
X132096428Y-76113690D01*
X133067857Y-77663690D02*
X133067857Y-76113690D01*
X133353571Y-76113690D01*
X133525000Y-76187500D01*
X133639285Y-76335119D01*
X133696428Y-76482738D01*
X133753571Y-76777976D01*
X133753571Y-76999404D01*
X133696428Y-77294642D01*
X133639285Y-77442261D01*
X133525000Y-77589880D01*
X133353571Y-77663690D01*
X133067857Y-77663690D01*
X134210714Y-77589880D02*
X134382142Y-77663690D01*
X134667857Y-77663690D01*
X134782142Y-77589880D01*
X134839285Y-77516071D01*
X134896428Y-77368452D01*
X134896428Y-77220833D01*
X134839285Y-77073214D01*
X134782142Y-76999404D01*
X134667857Y-76925595D01*
X134439285Y-76851785D01*
X134325000Y-76777976D01*
X134267857Y-76704166D01*
X134210714Y-76556547D01*
X134210714Y-76408928D01*
X134267857Y-76261309D01*
X134325000Y-76187500D01*
X134439285Y-76113690D01*
X134725000Y-76113690D01*
X134896428Y-76187500D01*
X133525000Y-80188690D02*
X133125000Y-79450595D01*
X132839285Y-80188690D02*
X132839285Y-78638690D01*
X133296428Y-78638690D01*
X133410714Y-78712500D01*
X133467857Y-78786309D01*
X133525000Y-78933928D01*
X133525000Y-79155357D01*
X133467857Y-79302976D01*
X133410714Y-79376785D01*
X133296428Y-79450595D01*
X132839285Y-79450595D01*
X133925000Y-78638690D02*
X134210714Y-80188690D01*
X134439285Y-79081547D01*
X134667857Y-80188690D01*
X134953571Y-78638690D01*
X129867857Y-82713690D02*
X129867857Y-81163690D01*
X130153571Y-81163690D01*
X130325000Y-81237500D01*
X130439285Y-81385119D01*
X130496428Y-81532738D01*
X130553571Y-81827976D01*
X130553571Y-82049404D01*
X130496428Y-82344642D01*
X130439285Y-82492261D01*
X130325000Y-82639880D01*
X130153571Y-82713690D01*
X129867857Y-82713690D01*
X130896428Y-81163690D02*
X131582142Y-81163690D01*
X131239285Y-82713690D02*
X131239285Y-81163690D01*
X131925000Y-82270833D02*
X132496428Y-82270833D01*
X131810714Y-82713690D02*
X132210714Y-81163690D01*
X132610714Y-82713690D01*
X133696428Y-82566071D02*
X133639285Y-82639880D01*
X133467857Y-82713690D01*
X133353571Y-82713690D01*
X133182142Y-82639880D01*
X133067857Y-82492261D01*
X133010714Y-82344642D01*
X132953571Y-82049404D01*
X132953571Y-81827976D01*
X133010714Y-81532738D01*
X133067857Y-81385119D01*
X133182142Y-81237500D01*
X133353571Y-81163690D01*
X133467857Y-81163690D01*
X133639285Y-81237500D01*
X133696428Y-81311309D01*
X134210714Y-82713690D02*
X134210714Y-81163690D01*
X134896428Y-82713690D02*
X134382142Y-81827976D01*
X134896428Y-81163690D02*
X134210714Y-82049404D01*
X133410714Y-84426785D02*
X133582142Y-84500595D01*
X133639285Y-84574404D01*
X133696428Y-84722023D01*
X133696428Y-84943452D01*
X133639285Y-85091071D01*
X133582142Y-85164880D01*
X133467857Y-85238690D01*
X133010714Y-85238690D01*
X133010714Y-83688690D01*
X133410714Y-83688690D01*
X133525000Y-83762500D01*
X133582142Y-83836309D01*
X133639285Y-83983928D01*
X133639285Y-84131547D01*
X133582142Y-84279166D01*
X133525000Y-84352976D01*
X133410714Y-84426785D01*
X133010714Y-84426785D01*
X134839285Y-83762500D02*
X134725000Y-83688690D01*
X134553571Y-83688690D01*
X134382142Y-83762500D01*
X134267857Y-83910119D01*
X134210714Y-84057738D01*
X134153571Y-84352976D01*
X134153571Y-84574404D01*
X134210714Y-84869642D01*
X134267857Y-85017261D01*
X134382142Y-85164880D01*
X134553571Y-85238690D01*
X134667857Y-85238690D01*
X134839285Y-85164880D01*
X134896428Y-85091071D01*
X134896428Y-84574404D01*
X134667857Y-84574404D01*
X129982142Y-86951785D02*
X130153571Y-87025595D01*
X130210714Y-87099404D01*
X130267857Y-87247023D01*
X130267857Y-87468452D01*
X130210714Y-87616071D01*
X130153571Y-87689880D01*
X130039285Y-87763690D01*
X129582142Y-87763690D01*
X129582142Y-86213690D01*
X129982142Y-86213690D01*
X130096428Y-86287500D01*
X130153571Y-86361309D01*
X130210714Y-86508928D01*
X130210714Y-86656547D01*
X130153571Y-86804166D01*
X130096428Y-86877976D01*
X129982142Y-86951785D01*
X129582142Y-86951785D01*
X131410714Y-86287500D02*
X131296428Y-86213690D01*
X131125000Y-86213690D01*
X130953571Y-86287500D01*
X130839285Y-86435119D01*
X130782142Y-86582738D01*
X130725000Y-86877976D01*
X130725000Y-87099404D01*
X130782142Y-87394642D01*
X130839285Y-87542261D01*
X130953571Y-87689880D01*
X131125000Y-87763690D01*
X131239285Y-87763690D01*
X131410714Y-87689880D01*
X131467857Y-87616071D01*
X131467857Y-87099404D01*
X131239285Y-87099404D01*
X131925000Y-87320833D02*
X132496428Y-87320833D01*
X131810714Y-87763690D02*
X132210714Y-86213690D01*
X132610714Y-87763690D01*
X133696428Y-87616071D02*
X133639285Y-87689880D01*
X133467857Y-87763690D01*
X133353571Y-87763690D01*
X133182142Y-87689880D01*
X133067857Y-87542261D01*
X133010714Y-87394642D01*
X132953571Y-87099404D01*
X132953571Y-86877976D01*
X133010714Y-86582738D01*
X133067857Y-86435119D01*
X133182142Y-86287500D01*
X133353571Y-86213690D01*
X133467857Y-86213690D01*
X133639285Y-86287500D01*
X133696428Y-86361309D01*
X134210714Y-87763690D02*
X134210714Y-86213690D01*
X134896428Y-87763690D02*
X134382142Y-86877976D01*
X134896428Y-86213690D02*
X134210714Y-87099404D01*
X133410714Y-89476785D02*
X133582142Y-89550595D01*
X133639285Y-89624404D01*
X133696428Y-89772023D01*
X133696428Y-89993452D01*
X133639285Y-90141071D01*
X133582142Y-90214880D01*
X133467857Y-90288690D01*
X133010714Y-90288690D01*
X133010714Y-88738690D01*
X133410714Y-88738690D01*
X133525000Y-88812500D01*
X133582142Y-88886309D01*
X133639285Y-89033928D01*
X133639285Y-89181547D01*
X133582142Y-89329166D01*
X133525000Y-89402976D01*
X133410714Y-89476785D01*
X133010714Y-89476785D01*
X134896428Y-90288690D02*
X134496428Y-89550595D01*
X134210714Y-90288690D02*
X134210714Y-88738690D01*
X134667857Y-88738690D01*
X134782142Y-88812500D01*
X134839285Y-88886309D01*
X134896428Y-89033928D01*
X134896428Y-89255357D01*
X134839285Y-89402976D01*
X134782142Y-89476785D01*
X134667857Y-89550595D01*
X134210714Y-89550595D01*
X132725000Y-95191071D02*
X132667857Y-95264880D01*
X132496428Y-95338690D01*
X132382142Y-95338690D01*
X132210714Y-95264880D01*
X132096428Y-95117261D01*
X132039285Y-94969642D01*
X131982142Y-94674404D01*
X131982142Y-94452976D01*
X132039285Y-94157738D01*
X132096428Y-94010119D01*
X132210714Y-93862500D01*
X132382142Y-93788690D01*
X132496428Y-93788690D01*
X132667857Y-93862500D01*
X132725000Y-93936309D01*
X133810714Y-95338690D02*
X133239285Y-95338690D01*
X133239285Y-93788690D01*
X134210714Y-95338690D02*
X134210714Y-93788690D01*
X134896428Y-95338690D02*
X134382142Y-94452976D01*
X134896428Y-93788690D02*
X134210714Y-94674404D01*
X131239285Y-100388690D02*
X131239285Y-98838690D01*
X131239285Y-99576785D02*
X131925000Y-99576785D01*
X131925000Y-100388690D02*
X131925000Y-98838690D01*
X132439285Y-99945833D02*
X133010714Y-99945833D01*
X132325000Y-100388690D02*
X132725000Y-98838690D01*
X133125000Y-100388690D01*
X134096428Y-100388690D02*
X133525000Y-100388690D01*
X133525000Y-98838690D01*
X134325000Y-98838690D02*
X135010714Y-98838690D01*
X134667857Y-100388690D02*
X134667857Y-98838690D01*
X130667857Y-102913690D02*
X130267857Y-102175595D01*
X129982142Y-102913690D02*
X129982142Y-101363690D01*
X130439285Y-101363690D01*
X130553571Y-101437500D01*
X130610714Y-101511309D01*
X130667857Y-101658928D01*
X130667857Y-101880357D01*
X130610714Y-102027976D01*
X130553571Y-102101785D01*
X130439285Y-102175595D01*
X129982142Y-102175595D01*
X131182142Y-102101785D02*
X131582142Y-102101785D01*
X131753571Y-102913690D02*
X131182142Y-102913690D01*
X131182142Y-101363690D01*
X131753571Y-101363690D01*
X132210714Y-102839880D02*
X132382142Y-102913690D01*
X132667857Y-102913690D01*
X132782142Y-102839880D01*
X132839285Y-102766071D01*
X132896428Y-102618452D01*
X132896428Y-102470833D01*
X132839285Y-102323214D01*
X132782142Y-102249404D01*
X132667857Y-102175595D01*
X132439285Y-102101785D01*
X132325000Y-102027976D01*
X132267857Y-101954166D01*
X132210714Y-101806547D01*
X132210714Y-101658928D01*
X132267857Y-101511309D01*
X132325000Y-101437500D01*
X132439285Y-101363690D01*
X132725000Y-101363690D01*
X132896428Y-101437500D01*
X133410714Y-102101785D02*
X133810714Y-102101785D01*
X133982142Y-102913690D02*
X133410714Y-102913690D01*
X133410714Y-101363690D01*
X133982142Y-101363690D01*
X134325000Y-101363690D02*
X135010714Y-101363690D01*
X134667857Y-102913690D02*
X134667857Y-101363690D01*
X131810714Y-103888690D02*
X132210714Y-105438690D01*
X132610714Y-103888690D01*
X133010714Y-105438690D02*
X133010714Y-103888690D01*
X133410714Y-104995833D01*
X133810714Y-103888690D01*
X133810714Y-105438690D01*
X134325000Y-104995833D02*
X134896428Y-104995833D01*
X134210714Y-105438690D02*
X134610714Y-103888690D01*
X135010714Y-105438690D01*
X134325000Y-107151785D02*
X134725000Y-107151785D01*
X134896428Y-107963690D02*
X134325000Y-107963690D01*
X134325000Y-106413690D01*
X134896428Y-106413690D01*
X131982142Y-108938690D02*
X132382142Y-110488690D01*
X132782142Y-108938690D01*
X133182142Y-110488690D02*
X133182142Y-108938690D01*
X133639285Y-108938690D01*
X133753571Y-109012500D01*
X133810714Y-109086309D01*
X133867857Y-109233928D01*
X133867857Y-109455357D01*
X133810714Y-109602976D01*
X133753571Y-109676785D01*
X133639285Y-109750595D01*
X133182142Y-109750595D01*
X134325000Y-110045833D02*
X134896428Y-110045833D01*
X134210714Y-110488690D02*
X134610714Y-108938690D01*
X135010714Y-110488690D01*
X131125000Y-112201785D02*
X131296428Y-112275595D01*
X131353571Y-112349404D01*
X131410714Y-112497023D01*
X131410714Y-112718452D01*
X131353571Y-112866071D01*
X131296428Y-112939880D01*
X131182142Y-113013690D01*
X130725000Y-113013690D01*
X130725000Y-111463690D01*
X131125000Y-111463690D01*
X131239285Y-111537500D01*
X131296428Y-111611309D01*
X131353571Y-111758928D01*
X131353571Y-111906547D01*
X131296428Y-112054166D01*
X131239285Y-112127976D01*
X131125000Y-112201785D01*
X130725000Y-112201785D01*
X131925000Y-112201785D02*
X132325000Y-112201785D01*
X132496428Y-113013690D02*
X131925000Y-113013690D01*
X131925000Y-111463690D01*
X132496428Y-111463690D01*
X133696428Y-113013690D02*
X133296428Y-112275595D01*
X133010714Y-113013690D02*
X133010714Y-111463690D01*
X133467857Y-111463690D01*
X133582142Y-111537500D01*
X133639285Y-111611309D01*
X133696428Y-111758928D01*
X133696428Y-111980357D01*
X133639285Y-112127976D01*
X133582142Y-112201785D01*
X133467857Y-112275595D01*
X133010714Y-112275595D01*
X134896428Y-113013690D02*
X134496428Y-112275595D01*
X134210714Y-113013690D02*
X134210714Y-111463690D01*
X134667857Y-111463690D01*
X134782142Y-111537500D01*
X134839285Y-111611309D01*
X134896428Y-111758928D01*
X134896428Y-111980357D01*
X134839285Y-112127976D01*
X134782142Y-112201785D01*
X134667857Y-112275595D01*
X134210714Y-112275595D01*
X131525000Y-115538690D02*
X131525000Y-113988690D01*
X132096428Y-115538690D02*
X132096428Y-113988690D01*
X132553571Y-113988690D01*
X132667857Y-114062500D01*
X132725000Y-114136309D01*
X132782142Y-114283928D01*
X132782142Y-114505357D01*
X132725000Y-114652976D01*
X132667857Y-114726785D01*
X132553571Y-114800595D01*
X132096428Y-114800595D01*
X133867857Y-115538690D02*
X133296428Y-115538690D01*
X133296428Y-113988690D01*
X134210714Y-114136309D02*
X134267857Y-114062500D01*
X134382142Y-113988690D01*
X134667857Y-113988690D01*
X134782142Y-114062500D01*
X134839285Y-114136309D01*
X134896428Y-114283928D01*
X134896428Y-114431547D01*
X134839285Y-114652976D01*
X134153571Y-115538690D01*
X134896428Y-115538690D01*
X131525000Y-118063690D02*
X131525000Y-116513690D01*
X132096428Y-118063690D02*
X132096428Y-116513690D01*
X132553571Y-116513690D01*
X132667857Y-116587500D01*
X132725000Y-116661309D01*
X132782142Y-116808928D01*
X132782142Y-117030357D01*
X132725000Y-117177976D01*
X132667857Y-117251785D01*
X132553571Y-117325595D01*
X132096428Y-117325595D01*
X133867857Y-118063690D02*
X133296428Y-118063690D01*
X133296428Y-116513690D01*
X134896428Y-118063690D02*
X134210714Y-118063690D01*
X134553571Y-118063690D02*
X134553571Y-116513690D01*
X134439285Y-116735119D01*
X134325000Y-116882738D01*
X134210714Y-116956547D01*
X131525000Y-120588690D02*
X131525000Y-119038690D01*
X132096428Y-120588690D02*
X132096428Y-119038690D01*
X132553571Y-119038690D01*
X132667857Y-119112500D01*
X132725000Y-119186309D01*
X132782142Y-119333928D01*
X132782142Y-119555357D01*
X132725000Y-119702976D01*
X132667857Y-119776785D01*
X132553571Y-119850595D01*
X132096428Y-119850595D01*
X133867857Y-120588690D02*
X133296428Y-120588690D01*
X133296428Y-119038690D01*
X134496428Y-119038690D02*
X134610714Y-119038690D01*
X134725000Y-119112500D01*
X134782142Y-119186309D01*
X134839285Y-119333928D01*
X134896428Y-119629166D01*
X134896428Y-119998214D01*
X134839285Y-120293452D01*
X134782142Y-120441071D01*
X134725000Y-120514880D01*
X134610714Y-120588690D01*
X134496428Y-120588690D01*
X134382142Y-120514880D01*
X134325000Y-120441071D01*
X134267857Y-120293452D01*
X134210714Y-119998214D01*
X134210714Y-119629166D01*
X134267857Y-119333928D01*
X134325000Y-119186309D01*
X134382142Y-119112500D01*
X134496428Y-119038690D01*
X132439285Y-122301785D02*
X132039285Y-122301785D01*
X132039285Y-123113690D02*
X132039285Y-121563690D01*
X132610714Y-121563690D01*
X133753571Y-122966071D02*
X133696428Y-123039880D01*
X133525000Y-123113690D01*
X133410714Y-123113690D01*
X133239285Y-123039880D01*
X133125000Y-122892261D01*
X133067857Y-122744642D01*
X133010714Y-122449404D01*
X133010714Y-122227976D01*
X133067857Y-121932738D01*
X133125000Y-121785119D01*
X133239285Y-121637500D01*
X133410714Y-121563690D01*
X133525000Y-121563690D01*
X133696428Y-121637500D01*
X133753571Y-121711309D01*
X134210714Y-121711309D02*
X134267857Y-121637500D01*
X134382142Y-121563690D01*
X134667857Y-121563690D01*
X134782142Y-121637500D01*
X134839285Y-121711309D01*
X134896428Y-121858928D01*
X134896428Y-122006547D01*
X134839285Y-122227976D01*
X134153571Y-123113690D01*
X134896428Y-123113690D01*
X132439285Y-124826785D02*
X132039285Y-124826785D01*
X132039285Y-125638690D02*
X132039285Y-124088690D01*
X132610714Y-124088690D01*
X133753571Y-125491071D02*
X133696428Y-125564880D01*
X133525000Y-125638690D01*
X133410714Y-125638690D01*
X133239285Y-125564880D01*
X133125000Y-125417261D01*
X133067857Y-125269642D01*
X133010714Y-124974404D01*
X133010714Y-124752976D01*
X133067857Y-124457738D01*
X133125000Y-124310119D01*
X133239285Y-124162500D01*
X133410714Y-124088690D01*
X133525000Y-124088690D01*
X133696428Y-124162500D01*
X133753571Y-124236309D01*
X134896428Y-125638690D02*
X134210714Y-125638690D01*
X134553571Y-125638690D02*
X134553571Y-124088690D01*
X134439285Y-124310119D01*
X134325000Y-124457738D01*
X134210714Y-124531547D01*
X132439285Y-127351785D02*
X132039285Y-127351785D01*
X132039285Y-128163690D02*
X132039285Y-126613690D01*
X132610714Y-126613690D01*
X133753571Y-128016071D02*
X133696428Y-128089880D01*
X133525000Y-128163690D01*
X133410714Y-128163690D01*
X133239285Y-128089880D01*
X133125000Y-127942261D01*
X133067857Y-127794642D01*
X133010714Y-127499404D01*
X133010714Y-127277976D01*
X133067857Y-126982738D01*
X133125000Y-126835119D01*
X133239285Y-126687500D01*
X133410714Y-126613690D01*
X133525000Y-126613690D01*
X133696428Y-126687500D01*
X133753571Y-126761309D01*
X134496428Y-126613690D02*
X134610714Y-126613690D01*
X134725000Y-126687500D01*
X134782142Y-126761309D01*
X134839285Y-126908928D01*
X134896428Y-127204166D01*
X134896428Y-127573214D01*
X134839285Y-127868452D01*
X134782142Y-128016071D01*
X134725000Y-128089880D01*
X134610714Y-128163690D01*
X134496428Y-128163690D01*
X134382142Y-128089880D01*
X134325000Y-128016071D01*
X134267857Y-127868452D01*
X134210714Y-127573214D01*
X134210714Y-127204166D01*
X134267857Y-126908928D01*
X134325000Y-126761309D01*
X134382142Y-126687500D01*
X134496428Y-126613690D01*
X133182142Y-130245833D02*
X133753571Y-130245833D01*
X133067857Y-130688690D02*
X133467857Y-129138690D01*
X133867857Y-130688690D01*
X134896428Y-130688690D02*
X134210714Y-130688690D01*
X134553571Y-130688690D02*
X134553571Y-129138690D01*
X134439285Y-129360119D01*
X134325000Y-129507738D01*
X134210714Y-129581547D01*
X133182142Y-132770833D02*
X133753571Y-132770833D01*
X133067857Y-133213690D02*
X133467857Y-131663690D01*
X133867857Y-133213690D01*
X134210714Y-131811309D02*
X134267857Y-131737500D01*
X134382142Y-131663690D01*
X134667857Y-131663690D01*
X134782142Y-131737500D01*
X134839285Y-131811309D01*
X134896428Y-131958928D01*
X134896428Y-132106547D01*
X134839285Y-132327976D01*
X134153571Y-133213690D01*
X134896428Y-133213690D01*
X133182142Y-135295833D02*
X133753571Y-135295833D01*
X133067857Y-135738690D02*
X133467857Y-134188690D01*
X133867857Y-135738690D01*
X134153571Y-134188690D02*
X134896428Y-134188690D01*
X134496428Y-134779166D01*
X134667857Y-134779166D01*
X134782142Y-134852976D01*
X134839285Y-134926785D01*
X134896428Y-135074404D01*
X134896428Y-135443452D01*
X134839285Y-135591071D01*
X134782142Y-135664880D01*
X134667857Y-135738690D01*
X134325000Y-135738690D01*
X134210714Y-135664880D01*
X134153571Y-135591071D01*
X133182142Y-137820833D02*
X133753571Y-137820833D01*
X133067857Y-138263690D02*
X133467857Y-136713690D01*
X133867857Y-138263690D01*
X134782142Y-137230357D02*
X134782142Y-138263690D01*
X134496428Y-136639880D02*
X134210714Y-137747023D01*
X134953571Y-137747023D01*
D13*
X122646785Y-60845000D02*
X122551547Y-60773571D01*
X122408690Y-60773571D01*
X122265833Y-60845000D01*
X122170595Y-60987857D01*
X122122976Y-61130714D01*
X122075357Y-61416428D01*
X122075357Y-61630714D01*
X122122976Y-61916428D01*
X122170595Y-62059285D01*
X122265833Y-62202142D01*
X122408690Y-62273571D01*
X122503928Y-62273571D01*
X122646785Y-62202142D01*
X122694404Y-62130714D01*
X122694404Y-61630714D01*
X122503928Y-61630714D01*
X123122976Y-62273571D02*
X123122976Y-60773571D01*
X123694404Y-62273571D01*
X123694404Y-60773571D01*
X124170595Y-62273571D02*
X124170595Y-60773571D01*
X124408690Y-60773571D01*
X124551547Y-60845000D01*
X124646785Y-60987857D01*
X124694404Y-61130714D01*
X124742023Y-61416428D01*
X124742023Y-61630714D01*
X124694404Y-61916428D01*
X124646785Y-62059285D01*
X124551547Y-62202142D01*
X124408690Y-62273571D01*
X124170595Y-62273571D01*
X123837261Y-58233571D02*
X123361071Y-58233571D01*
X123313452Y-58947857D01*
X123361071Y-58876428D01*
X123456309Y-58805000D01*
X123694404Y-58805000D01*
X123789642Y-58876428D01*
X123837261Y-58947857D01*
X123884880Y-59090714D01*
X123884880Y-59447857D01*
X123837261Y-59590714D01*
X123789642Y-59662142D01*
X123694404Y-59733571D01*
X123456309Y-59733571D01*
X123361071Y-59662142D01*
X123313452Y-59590714D01*
X124170595Y-58233571D02*
X124503928Y-59733571D01*
X124837261Y-58233571D01*
D14*
%TO.C,J1*%
X135830000Y-139170000D02*
X141030000Y-139170000D01*
X135830000Y-60370000D02*
X135830000Y-139170000D01*
X141030000Y-57770000D02*
X141030000Y-139170000D01*
X135830000Y-60370000D02*
X138430000Y-60370000D01*
X138430000Y-60370000D02*
X138430000Y-57770000D01*
X138430000Y-57770000D02*
X141030000Y-57770000D01*
X135830000Y-59100000D02*
X135830000Y-57770000D01*
X135830000Y-57770000D02*
X137160000Y-57770000D01*
%TO.C,J2*%
X125670000Y-57770000D02*
X128270000Y-57770000D01*
X125670000Y-57770000D02*
X125670000Y-62970000D01*
X125670000Y-62970000D02*
X130870000Y-62970000D01*
X130870000Y-60370000D02*
X130870000Y-62970000D01*
X128270000Y-60370000D02*
X130870000Y-60370000D01*
X128270000Y-57770000D02*
X128270000Y-60370000D01*
X130870000Y-57770000D02*
X130870000Y-59100000D01*
X129540000Y-57770000D02*
X130870000Y-57770000D01*
%TO.C,U2*%
X90130000Y-57770000D02*
X81260000Y-57770000D01*
X81260000Y-57770000D02*
X81260000Y-139170000D01*
X81260000Y-139170000D02*
X101000000Y-139170000D01*
X101000000Y-139170000D02*
X101000000Y-57770000D01*
X101000000Y-57770000D02*
X92130000Y-57770000D01*
X78260000Y-57710000D02*
X78260000Y-139230000D01*
X78260000Y-139230000D02*
X104000000Y-139230000D01*
X104000000Y-139230000D02*
X104000000Y-57710000D01*
X104000000Y-57710000D02*
X78260000Y-57710000D01*
X92130000Y-57770000D02*
G75*
G02*
X90130000Y-57770000I-1000000J0D01*
G01*
%TO.C,U1*%
X101870000Y-57770000D02*
X93000000Y-57770000D01*
X93000000Y-57770000D02*
X93000000Y-139170000D01*
X93000000Y-139170000D02*
X112740000Y-139170000D01*
X112740000Y-139170000D02*
X112740000Y-57770000D01*
X112740000Y-57770000D02*
X103870000Y-57770000D01*
X103870000Y-57770000D02*
G75*
G02*
X101870000Y-57770000I-1000000J0D01*
G01*
%TO.C,J1*%
D10*
X138096666Y-56222380D02*
X138096666Y-56936666D01*
X138049047Y-57079523D01*
X137953809Y-57174761D01*
X137810952Y-57222380D01*
X137715714Y-57222380D01*
X139096666Y-57222380D02*
X138525238Y-57222380D01*
X138810952Y-57222380D02*
X138810952Y-56222380D01*
X138715714Y-56365238D01*
X138620476Y-56460476D01*
X138525238Y-56508095D01*
%TO.C,J2*%
X127936666Y-55782380D02*
X127936666Y-56496666D01*
X127889047Y-56639523D01*
X127793809Y-56734761D01*
X127650952Y-56782380D01*
X127555714Y-56782380D01*
X128365238Y-55877619D02*
X128412857Y-55830000D01*
X128508095Y-55782380D01*
X128746190Y-55782380D01*
X128841428Y-55830000D01*
X128889047Y-55877619D01*
X128936666Y-55972857D01*
X128936666Y-56068095D01*
X128889047Y-56210952D01*
X128317619Y-56782380D01*
X128936666Y-56782380D01*
%TO.C,U2*%
X90368095Y-56222380D02*
X90368095Y-57031904D01*
X90415714Y-57127142D01*
X90463333Y-57174761D01*
X90558571Y-57222380D01*
X90749047Y-57222380D01*
X90844285Y-57174761D01*
X90891904Y-57127142D01*
X90939523Y-57031904D01*
X90939523Y-56222380D01*
X91368095Y-56317619D02*
X91415714Y-56270000D01*
X91510952Y-56222380D01*
X91749047Y-56222380D01*
X91844285Y-56270000D01*
X91891904Y-56317619D01*
X91939523Y-56412857D01*
X91939523Y-56508095D01*
X91891904Y-56650952D01*
X91320476Y-57222380D01*
X91939523Y-57222380D01*
%TO.C,U1*%
X102108095Y-56222380D02*
X102108095Y-57031904D01*
X102155714Y-57127142D01*
X102203333Y-57174761D01*
X102298571Y-57222380D01*
X102489047Y-57222380D01*
X102584285Y-57174761D01*
X102631904Y-57127142D01*
X102679523Y-57031904D01*
X102679523Y-56222380D01*
X103679523Y-57222380D02*
X103108095Y-57222380D01*
X103393809Y-57222380D02*
X103393809Y-56222380D01*
X103298571Y-56365238D01*
X103203333Y-56460476D01*
X103108095Y-56508095D01*
%TD*%
M02*
